<?xml version="1.0" encoding="UTF-8"?>
<svg xmlns="http://www.w3.org/2000/svg" version="1.1" width="400" height="400" viewBox="0 0 400 400"><rect x="0" y="0" width="400" height="400" fill="#ffffff"/><g transform="scale(10.811)"><g transform="translate(4,4)"><path fill-rule="evenodd" d="M8 0L8 3L9 3L9 5L8 5L8 9L7 9L7 8L6 8L6 9L7 9L7 10L5 10L5 11L7 11L7 12L6 12L6 13L8 13L8 14L6 14L6 15L5 15L5 14L4 14L4 13L3 13L3 11L4 11L4 9L5 9L5 8L2 8L2 9L1 9L1 10L3 10L3 11L2 11L2 13L3 13L3 14L4 14L4 15L2 15L2 14L1 14L1 15L2 15L2 16L3 16L3 17L2 17L2 20L3 20L3 21L5 21L5 16L6 16L6 17L9 17L9 16L11 16L11 15L14 15L14 14L12 14L12 12L13 12L13 13L15 13L15 14L16 14L16 15L15 15L15 16L14 16L14 17L15 17L15 16L18 16L18 15L17 15L17 14L16 14L16 13L15 13L15 11L14 11L14 10L16 10L16 11L17 11L17 13L18 13L18 14L23 14L23 15L24 15L24 16L25 16L25 17L24 17L24 18L23 18L23 17L21 17L21 18L22 18L22 20L21 20L21 19L19 19L19 18L20 18L20 16L19 16L19 17L16 17L16 18L17 18L17 19L16 19L16 20L15 20L15 18L13 18L13 17L12 17L12 19L11 19L11 17L10 17L10 18L9 18L9 19L8 19L8 18L6 18L6 19L7 19L7 20L6 20L6 21L7 21L7 20L8 20L8 22L9 22L9 24L8 24L8 27L9 27L9 29L11 29L11 28L12 28L12 27L14 27L14 29L15 29L15 27L17 27L17 28L16 28L16 29L17 29L17 28L18 28L18 29L20 29L20 28L21 28L21 27L24 27L24 29L27 29L27 28L28 28L28 26L27 26L27 24L26 24L26 23L25 23L25 22L26 22L26 21L27 21L27 22L29 22L29 21L27 21L27 20L29 20L29 19L27 19L27 18L29 18L29 16L26 16L26 15L24 15L24 14L26 14L26 13L27 13L27 14L29 14L29 12L28 12L28 11L27 11L27 10L25 10L25 9L24 9L24 8L21 8L21 2L20 2L20 1L21 1L21 0L20 0L20 1L19 1L19 0L18 0L18 1L17 1L17 0L15 0L15 1L12 1L12 2L11 2L11 4L12 4L12 5L10 5L10 2L9 2L9 0ZM10 0L10 1L11 1L11 0ZM15 1L15 2L14 2L14 3L13 3L13 2L12 2L12 3L13 3L13 7L12 7L12 6L11 6L11 7L10 7L10 6L9 6L9 8L11 8L11 9L12 9L12 8L13 8L13 7L14 7L14 8L15 8L15 7L16 7L16 10L17 10L17 9L18 9L18 12L19 12L19 11L20 11L20 10L21 10L21 8L20 8L20 5L19 5L19 7L18 7L18 4L19 4L19 3L18 3L18 2L17 2L17 1ZM16 2L16 3L17 3L17 4L16 4L16 5L17 5L17 4L18 4L18 3L17 3L17 2ZM14 3L14 5L15 5L15 3ZM14 6L14 7L15 7L15 6ZM16 6L16 7L17 7L17 6ZM11 7L11 8L12 8L12 7ZM18 8L18 9L19 9L19 8ZM26 8L26 9L28 9L28 10L29 10L29 8ZM9 9L9 10L8 10L8 11L9 11L9 10L10 10L10 11L11 11L11 10L10 10L10 9ZM12 10L12 11L13 11L13 10ZM23 10L23 11L24 11L24 13L23 13L23 12L22 12L22 13L23 13L23 14L24 14L24 13L26 13L26 12L27 12L27 11L26 11L26 12L25 12L25 10ZM0 12L0 13L1 13L1 12ZM8 12L8 13L10 13L10 12ZM20 12L20 13L21 13L21 12ZM9 14L9 15L11 15L11 14ZM6 15L6 16L8 16L8 15ZM21 15L21 16L22 16L22 15ZM0 17L0 21L1 21L1 17ZM3 17L3 19L4 19L4 17ZM24 18L24 19L23 19L23 20L24 20L24 19L25 19L25 18ZM10 19L10 20L9 20L9 21L10 21L10 22L11 22L11 19ZM13 19L13 20L12 20L12 21L13 21L13 20L14 20L14 21L15 21L15 20L14 20L14 19ZM26 19L26 20L25 20L25 21L26 21L26 20L27 20L27 19ZM19 20L19 21L18 21L18 23L17 23L17 22L15 22L15 23L14 23L14 22L13 22L13 23L10 23L10 27L12 27L12 26L14 26L14 27L15 27L15 26L18 26L18 28L19 28L19 25L20 25L20 24L19 24L19 22L20 22L20 20ZM21 21L21 24L24 24L24 21ZM22 22L22 23L23 23L23 22ZM13 23L13 24L12 24L12 25L13 25L13 24L14 24L14 25L15 25L15 24L16 24L16 25L17 25L17 24L16 24L16 23L15 23L15 24L14 24L14 23ZM28 23L28 25L29 25L29 23ZM18 24L18 25L19 25L19 24ZM22 25L22 26L23 26L23 25ZM24 25L24 26L25 26L25 27L26 27L26 28L27 28L27 27L26 27L26 26L25 26L25 25ZM0 0L0 7L7 7L7 0ZM1 1L1 6L6 6L6 1ZM2 2L2 5L5 5L5 2ZM22 0L22 7L29 7L29 0ZM23 1L23 6L28 6L28 1ZM24 2L24 5L27 5L27 2ZM0 22L0 29L7 29L7 22ZM1 23L1 28L6 28L6 23ZM2 24L2 27L5 27L5 24Z" fill="#000000"/></g></g></svg>
