<?xml version="1.0" encoding="UTF-8"?>
<svg xmlns="http://www.w3.org/2000/svg" version="1.1" width="400" height="400" viewBox="0 0 400 400"><rect x="0" y="0" width="400" height="400" fill="#ffffff"/><g transform="scale(12.121)"><g transform="translate(4,4)"><path fill-rule="evenodd" d="M8 0L8 1L10 1L10 0ZM13 0L13 2L11 2L11 4L10 4L10 3L9 3L9 2L8 2L8 5L9 5L9 6L8 6L8 7L9 7L9 8L8 8L8 10L5 10L5 9L4 9L4 8L0 8L0 11L1 11L1 12L0 12L0 13L1 13L1 15L0 15L0 16L1 16L1 15L2 15L2 17L3 17L3 16L4 16L4 17L5 17L5 16L4 16L4 15L7 15L7 16L6 16L6 17L8 17L8 18L9 18L9 17L10 17L10 19L12 19L12 20L11 20L11 21L10 21L10 20L9 20L9 21L8 21L8 25L9 25L9 22L10 22L10 23L14 23L14 20L13 20L13 19L15 19L15 20L16 20L16 21L17 21L17 22L16 22L16 23L17 23L17 25L18 25L18 24L19 24L19 25L25 25L25 24L23 24L23 23L24 23L24 22L25 22L25 21L24 21L24 20L25 20L25 15L24 15L24 14L25 14L25 12L23 12L23 11L21 11L21 10L20 10L20 9L23 9L23 10L24 10L24 9L25 9L25 8L24 8L24 9L23 9L23 8L20 8L20 9L19 9L19 10L20 10L20 11L19 11L19 12L18 12L18 11L17 11L17 9L18 9L18 8L17 8L17 1L16 1L16 2L15 2L15 3L14 3L14 0ZM12 3L12 5L10 5L10 6L9 6L9 7L10 7L10 8L9 8L9 9L10 9L10 10L8 10L8 11L6 11L6 12L5 12L5 10L4 10L4 11L2 11L2 9L1 9L1 11L2 11L2 12L3 12L3 13L6 13L6 14L7 14L7 15L8 15L8 17L9 17L9 15L10 15L10 16L12 16L12 17L11 17L11 18L12 18L12 17L13 17L13 18L15 18L15 19L16 19L16 16L19 16L19 15L20 15L20 14L18 14L18 13L17 13L17 11L16 11L16 9L14 9L14 6L13 6L13 7L12 7L12 5L14 5L14 4L13 4L13 3ZM15 5L15 7L16 7L16 5ZM10 6L10 7L11 7L11 8L12 8L12 7L11 7L11 6ZM6 8L6 9L7 9L7 8ZM8 11L8 12L6 12L6 13L7 13L7 14L8 14L8 15L9 15L9 14L10 14L10 15L11 15L11 14L12 14L12 16L13 16L13 17L15 17L15 16L13 16L13 14L12 14L12 12L13 12L13 13L15 13L15 14L14 14L14 15L15 15L15 14L17 14L17 13L15 13L15 12L16 12L16 11L11 11L11 13L10 13L10 12L9 12L9 11ZM8 12L8 14L9 14L9 12ZM19 12L19 13L20 13L20 12ZM21 12L21 16L24 16L24 15L22 15L22 14L24 14L24 13L22 13L22 12ZM2 14L2 15L3 15L3 14ZM17 17L17 20L20 20L20 17ZM21 17L21 20L22 20L22 21L23 21L23 19L22 19L22 17ZM23 17L23 18L24 18L24 17ZM18 18L18 19L19 19L19 18ZM11 21L11 22L12 22L12 21ZM19 21L19 24L20 24L20 21ZM21 22L21 24L22 24L22 22ZM10 24L10 25L11 25L11 24ZM12 24L12 25L13 25L13 24ZM14 24L14 25L15 25L15 24ZM0 0L0 7L7 7L7 0ZM1 1L1 6L6 6L6 1ZM2 2L2 5L5 5L5 2ZM18 0L18 7L25 7L25 0ZM19 1L19 6L24 6L24 1ZM20 2L20 5L23 5L23 2ZM0 18L0 25L7 25L7 18ZM1 19L1 24L6 24L6 19ZM2 20L2 23L5 23L5 20Z" fill="#000000"/></g></g></svg>
